<?xml version="1.0" encoding="UTF-8"?>
<svg version="1.1" xmlns="http://www.w3.org/2000/svg" width="387" height="43">
<path d="M0 0 C3.96 0 7.92 0 12 0 C12.66 4.29 13.32 8.58 14 13 C14.33 8.71 14.66 4.42 15 0 C17.31 0 19.62 0 22 0 C22 9.9 22 19.8 22 30 C18.04 30 14.08 30 10 30 C8.65246926 24.2505355 7.73998667 18.91989339 7 13 C6.67 18.61 6.34 24.22 6 30 C4.02 30 2.04 30 0 30 C0 20.1 0 10.2 0 0 Z " fill="#150D0A" transform="translate(76,7)"/>
<path d="M0 0 C1.98 0 3.96 0 6 0 C6.33 2.64 6.66 5.28 7 8 C7.33 5.36 7.66 2.72 8 0 C11.3 0 14.6 0 18 0 C18.33 2.64 18.66 5.28 19 8 C19.33 5.36 19.66 2.72 20 0 C21.98 0 23.96 0 26 0 C25.67 7.26 25.34 14.52 25 22 C21.37 22 17.74 22 14 22 C13.67 19.03 13.34 16.06 13 13 C12.67 15.97 12.34 18.94 12 22 C10.35425434 22.02688151 8.70838587 22.04634123 7.0625 22.0625 C6.14597656 22.07410156 5.22945313 22.08570312 4.28515625 22.09765625 C2 22 2 22 1 21 C0.84313751 19.44051458 0.74923361 17.87457332 0.68359375 16.30859375 C0.64169922 15.36435547 0.59980469 14.42011719 0.55664062 13.44726562 C0.51732422 12.45404297 0.47800781 11.46082031 0.4375 10.4375 C0.39431641 9.44041016 0.35113281 8.44332031 0.30664062 7.41601562 C0.20019702 4.9441585 0.09818072 2.4721969 0 0 Z " fill="#FF7000" transform="translate(361,15)"/>
<path d="M0 0 C3.7241835 3.10348625 5.094812 6.53612318 5.6484375 11.3125 C5.64070313 12.488125 5.63296875 13.66375 5.625 14.875 C5.63273437 16.050625 5.64046875 17.22625 5.6484375 18.4375 C5.12301949 22.97051811 3.6111213 26.30447542 0.625 29.75 C-3.11361788 31.52092426 -6.69132172 31.41132534 -10.75 30.875 C-13.55483297 29.68145405 -15.09709404 28.79647721 -16.8515625 26.3203125 C-18.22533373 22.58126558 -18.15875864 18.95353345 -18.1875 15 C-18.22037109 14.20980469 -18.25324219 13.41960938 -18.28710938 12.60546875 C-18.32528554 8.43385482 -18.05676428 5.69406814 -15.41015625 2.3671875 C-10.90284779 -1.85551851 -5.71228084 -2.33684216 0 0 Z M-10.75 6.875 C-12.5362433 12.23372991 -12.70841292 17.87830642 -10.25 23 C-9.755 23.61875 -9.26 24.2375 -8.75 24.875 C-5.77934491 24.53272428 -5.77934491 24.53272428 -2.75 23.875 C-1.27305932 20.92111864 -1.54069203 18.22338118 -1.5 14.9375 C-1.47421875 13.69097656 -1.4484375 12.44445312 -1.421875 11.16015625 C-1.47827852 7.93905115 -1.47827852 7.93905115 -3.078125 5.93359375 C-6.2904267 3.89963636 -7.72807791 4.86038527 -10.75 6.875 Z " fill="#FF7000" transform="translate(197.75,7.125)"/>
<path d="M0 0 C3.49890004 2.11391877 4.70578686 3.11736059 6 7 C6 9.31 6 11.62 6 14 C1.38 14.33 -3.24 14.66 -8 15 C-3.39222918 16.2658141 -3.39222918 16.2658141 -0.375 15.4375 C2 15 2 15 5 17 C3.63016497 20.16115776 3.0109362 20.9927092 0 23 C-3.76904461 23.6820176 -7.45628171 23.83098707 -10.88671875 21.984375 C-13.5498242 19.84357352 -14.91352869 18.25941392 -16 15 C-16.67195988 8.16840786 -16.67195988 8.16840786 -14.953125 5.1796875 C-10.51617214 -0.2229551 -6.71240656 -0.85788961 0 0 Z M-8 6 C-8.33 6.66 -8.66 7.32 -9 8 C-6.36 8 -3.72 8 -1 8 C-1.33 7.34 -1.66 6.68 -2 6 C-3.98 6 -5.96 6 -8 6 Z " fill="#150D0A" transform="translate(118,15)"/>
<path d="M0 0 C3.01113945 1.27537931 3.80962762 2.31679384 6 5 C6.77715862 8.09827238 6.90365817 10.77254862 7 14 C2.05 14 -2.9 14 -8 14 C-8 14.66 -8 15.32 -8 16 C-3.85828461 16.11626721 -3.85828461 16.11626721 0.1875 15.375 C0.785625 15.25125 1.38375 15.1275 2 15 C2.99 15.66 3.98 16.32 5 17 C4.67012361 19.47407292 4.42027913 20.6637767 2.4375 22.25 C-2.31525603 23.71238647 -6.40901954 23.72631717 -10.875 21.6875 C-13.56075202 19.55469693 -14.87798046 17.9165654 -15.3359375 14.4765625 C-15.44196429 6.73660714 -15.44196429 6.73660714 -13.125 2.875 C-9.09431236 -0.68148909 -5.19863276 -0.74141575 0 0 Z M-7 6 C-7.33 6.66 -7.66 7.32 -8 8 C-5.36 8 -2.72 8 0 8 C-1.83883881 5.71271266 -1.83883881 5.71271266 -4.625 5.875 C-5.800625 5.936875 -5.800625 5.936875 -7 6 Z " fill="#FF7000" transform="translate(248,15)"/>
<path d="M0 0 C3.8967311 1.65818345 5.41466623 3.14096384 7 7 C7.58917111 11.27722925 7.44539482 14.95332218 5.75 18.9375 C3.80470008 21.2301749 2.87852015 22.14422374 0 23 C-4.21436918 23.33447374 -6.90312958 23.43874817 -10.8125 21.875 C-13.66679851 19.42845842 -14.78733279 17.57063124 -16 14 C-16.2144382 9.6254607 -15.4814857 6.72999445 -13.0625 3.0625 C-9.18109945 -0.81890055 -5.24575254 -0.508239 0 0 Z M-9 8 C-9.41666667 11.5 -9.41666667 11.5 -9 15 C-6.24104365 17.29637779 -6.24104365 17.29637779 -3.4375 16.75 C-0.84999433 16.16191948 -0.84999433 16.16191948 1 14 C1.36487512 11.15397406 1.40199375 9.6135694 -0.1875 7.1875 C-3.55872455 4.97876668 -6.19294559 5.19294559 -9 8 Z " fill="#FF7000" transform="translate(352,15)"/>
<path d="M0 0 C1.65322266 0.01740234 1.65322266 0.01740234 3.33984375 0.03515625 C4.99693359 0.04869141 4.99693359 0.04869141 6.6875 0.0625 C7.54214844 0.07410156 8.39679688 0.08570313 9.27734375 0.09765625 C9.27734375 2.07765625 9.27734375 4.05765625 9.27734375 6.09765625 C6.96734375 6.09765625 4.65734375 6.09765625 2.27734375 6.09765625 C2.27734375 6.75765625 2.27734375 7.41765625 2.27734375 8.09765625 C4.91734375 8.09765625 7.55734375 8.09765625 10.27734375 8.09765625 C10.27734375 10.07765625 10.27734375 12.05765625 10.27734375 14.09765625 C7.63734375 14.09765625 4.99734375 14.09765625 2.27734375 14.09765625 C2.27734375 19.37765625 2.27734375 24.65765625 2.27734375 30.09765625 C-0.03265625 30.09765625 -2.34265625 30.09765625 -4.72265625 30.09765625 C-4.72265625 24.81765625 -4.72265625 19.53765625 -4.72265625 14.09765625 C-6.70265625 14.09765625 -8.68265625 14.09765625 -10.72265625 14.09765625 C-10.72265625 12.11765625 -10.72265625 10.13765625 -10.72265625 8.09765625 C-8.74265625 8.09765625 -6.76265625 8.09765625 -4.72265625 8.09765625 C-4.57828125 6.96328125 -4.43390625 5.82890625 -4.28515625 4.66015625 C-3.56955783 0.12803292 -3.56955783 0.12803292 0 0 Z " fill="#FF7000" transform="translate(295.72265625,6.90234375)"/>
<path d="M0 0 C4.33333333 0 8.66666667 0 13 0 C14.7325 -0.0928125 14.7325 -0.0928125 16.5 -0.1875 C20 0 20 0 21.9375 1.0625 C23.55479605 4.01168691 23.18630138 6.70867559 23 10 C21.02 10 19.04 10 17 10 C16.67 8.68 16.34 7.36 16 6 C14.68 6.33 13.36 6.66 12 7 C11.67 9.97 11.34 12.94 11 16 C12.32 16 13.64 16 15 16 C15 17.98 15 19.96 15 22 C10.05 22 5.1 22 0 22 C0 20.02 0 18.04 0 16 C1.32 16 2.64 16 4 16 C4 12.7 4 9.4 4 6 C2.68 6 1.36 6 0 6 C0 4.02 0 2.04 0 0 Z " fill="#FF7000" transform="translate(258,15)"/>
<path d="M0 0 C3.3125 -0.3125 3.3125 -0.3125 7 0 C8.95578117 2.39740918 10 3.87586608 10 7 C10.66 7 11.32 7 12 7 C12.309375 6.030625 12.61875 5.06125 12.9375 4.0625 C14 1 14 1 15 0 C17.33297433 -0.04092937 19.66705225 -0.04241723 22 0 C20.20320856 5.64705882 20.20320856 5.64705882 18.8125 8.0625 C17.67651559 10.77138589 18.11996232 12.22449654 19 15 C19.97691857 16.68029994 20.97388051 18.34928604 22 20 C22 20.66 22 21.32 22 22 C19.36 22 16.72 22 14 22 C13.34 19.69 12.68 17.38 12 15 C11.34 15 10.68 15 10 15 C9.7834375 16.175625 9.7834375 16.175625 9.5625 17.375 C9 20 9 20 8 22 C5.36 22 2.72 22 0 22 C0.30035156 21.41992188 0.60070312 20.83984375 0.91015625 20.2421875 C4.0153008 13.87203718 4.0153008 13.87203718 3 7 C2.0398183 5.31008021 1.04644066 3.63790712 0 2 C0 1.34 0 0.68 0 0 Z " fill="#150D0A" transform="translate(128,15)"/>
<path d="M0 0 C4.29 0 8.58 0 13 0 C13 7.92 13 15.84 13 24 C15.31 24 17.62 24 20 24 C20 25.98 20 27.96 20 30 C13.07 30 6.14 30 -1 30 C-1 28.02 -1 26.04 -1 24 C1.64 24 4.28 24 7 24 C7 18.06 7 12.12 7 6 C4.69 6 2.38 6 0 6 C0 4.02 0 2.04 0 0 Z " fill="#FF7000" transform="translate(312,7)"/>
<path d="M0 0 C1.98 0 3.96 0 6 0 C6 2.64 6 5.28 6 8 C7.7015625 7.9690625 7.7015625 7.9690625 9.4375 7.9375 C13 8 13 8 14 9 C14.04063832 10.66617115 14.042721 12.33388095 14 14 C11.36 14 8.72 14 6 14 C6 17.3 6 20.6 6 24 C8.31 24 10.62 24 13 24 C13 25.98 13 27.96 13 30 C8.71 30 4.42 30 0 30 C0 24.72 0 19.44 0 14 C-2.31 14 -4.62 14 -7 14 C-7 12.02 -7 10.04 -7 8 C-4.69 8 -2.38 8 0 8 C0 5.36 0 2.72 0 0 Z " fill="#150D0A" transform="translate(161,7)"/>
<path d="M0 0 C1.66611905 -0.042721 3.33382885 -0.04063832 5 0 C5.33 0.33 5.66 0.66 6 1 C5.55324878 6.66376519 4.34719303 11.64959109 2.49609375 17 C2.2533522 17.7211499 2.01061066 18.4422998 1.76051331 19.18530273 C0.99326549 21.45934296 0.21559502 23.72965143 -0.5625 26 C-1.08858767 27.55314949 -1.61398478 29.10653306 -2.13867188 30.66015625 C-3.4178215 34.44285472 -4.70632282 38.22224654 -6 42 C-8.375 42.625 -8.375 42.625 -11 43 C-11.66 42.34 -12.32 41.68 -13 41 C-11.71636478 32.19656142 -8.30532648 23.8062981 -5.375 15.4375 C-4.85370978 13.93700761 -4.33287262 12.43635774 -3.8125 10.93554688 C-2.54688478 7.28852729 -1.27515038 3.64369607 0 0 Z " fill="#FF7000" transform="translate(34,0)"/>
<path d="M0 0 C1.98 0 3.96 0 6 0 C8.12309693 5.40424672 9.56566681 10.26266723 11 16 C12.65 10.72 14.3 5.44 16 0 C18.31 0 20.62 0 23 0 C21.71724105 7.62904004 19.54767461 14.6966661 17 22 C13.04 22 9.08 22 5 22 C4.1602972 19.08503169 3.32803997 16.1682814 2.5 13.25 C2.26152344 12.425 2.02304688 11.6 1.77734375 10.75 C1.55175781 9.95078125 1.32617188 9.1515625 1.09375 8.328125 C0.88427734 7.5949707 0.67480469 6.86181641 0.45898438 6.10644531 C0 4 0 4 0 0 Z " fill="#FF7000" transform="translate(206,15)"/>
<path d="M0 0 C1.04414062 0.17595703 1.04414062 0.17595703 2.109375 0.35546875 C2.88671875 2.5546875 2.88671875 2.5546875 3.109375 5.35546875 C1.23828125 7.8125 1.23828125 7.8125 -1.328125 10.16796875 C-2.59462891 11.35326172 -2.59462891 11.35326172 -3.88671875 12.5625 C-4.54800781 13.15417969 -5.20929687 13.74585938 -5.890625 14.35546875 C-4.08527863 18.46102801 -1.35240161 21.17625106 1.74609375 24.35546875 C3.109375 26.35546875 3.109375 26.35546875 2.81640625 28.60546875 C2.58308594 29.18296875 2.34976562 29.76046875 2.109375 30.35546875 C0.32739258 31.02978516 0.32739258 31.02978516 -1.890625 31.35546875 C-4.707184 29.60261231 -6.89089092 27.09636719 -9.203125 24.73046875 C-9.86119141 24.10011719 -10.51925781 23.46976563 -11.19726562 22.8203125 C-15.80006531 18.19346475 -15.80006531 18.19346475 -16.16796875 14.7890625 C-14.33957884 11.30561628 -11.93657647 8.78233548 -9.140625 6.04296875 C-8.6146875 5.49318359 -8.08875 4.94339844 -7.546875 4.37695312 C-5.06622186 1.90551033 -3.53714775 0.43497358 0 0 Z " fill="#FF7000" transform="translate(15.890625,5.64453125)"/>
<path d="M0 0 C2.0703125 -0.38671875 2.0703125 -0.38671875 5 0 C7.57745173 1.78068761 9.69299537 3.94997977 11.875 6.1875 C12.48085938 6.76564453 13.08671875 7.34378906 13.7109375 7.93945312 C17.96529511 12.21798322 17.96529511 12.21798322 18.1171875 15.640625 C15.31925402 21.54954745 9.55447207 27.6056004 4 31 C1.6875 30.75 1.6875 30.75 0 30 C-0.77734375 28.328125 -0.77734375 28.328125 -1 26 C0.87109375 23.421875 0.87109375 23.421875 3.4375 20.75 C4.28183594 19.85796875 5.12617187 18.9659375 5.99609375 18.046875 C6.65738281 17.37140625 7.31867187 16.6959375 8 16 C6.60005228 12.75240554 4.9554506 10.88379333 2.3125 8.5625 C0.421875 6.75 0.421875 6.75 -1 5 C-0.9375 2.0625 -0.9375 2.0625 0 0 Z " fill="#FF7000" transform="translate(43,6)"/>
</svg>
