<?xml version="1.0" encoding="UTF-8"?>
<svg version="1.1" xmlns="http://www.w3.org/2000/svg" width="500" height="500">
<path d="M0 0 C6.11624109 3.29336059 9.47450432 7.65843803 12.3125 13.875 C13.85509569 20.8867986 13.09437273 26.30535303 11.04524231 33.0783844 C10.71849179 34.1718442 10.71849179 34.1718442 10.38514024 35.28739411 C6.96998356 46.56533922 3.21352192 57.73722628 -0.49463975 68.92127717 C-1.40626927 71.67238304 -2.31576204 74.42419347 -3.22527114 77.17600095 C-6.47344915 87.00349111 -9.72996997 96.82820942 -12.98828125 106.65234375 C-13.24577667 107.4287798 -13.50327208 108.20521585 -13.76857039 109.00518027 C-18.89307461 124.45703323 -24.02092098 139.90777567 -29.15554523 155.35626888 C-30.27911928 158.73692694 -31.40264733 162.11760028 -32.52612305 165.49829102 C-32.80530546 166.3383796 -33.08448787 167.17846818 -33.37213036 168.04401398 C-37.90299571 181.67941219 -42.4172361 195.32025623 -46.92496894 208.96331697 C-51.56512838 223.00614598 -56.22120055 237.04362119 -60.89251298 251.07611853 C-63.51022629 258.94105497 -66.1208484 266.80819157 -68.71337318 274.68147087 C-70.91842646 281.37796781 -73.13775402 288.06951616 -75.37568513 294.75510108 C-76.51547488 298.16157459 -77.64846427 301.56990931 -78.76298332 304.98474312 C-79.97412676 308.69499493 -81.2180458 312.39378224 -82.46504211 316.09214783 C-82.97943225 317.69444155 -82.97943225 317.69444155 -83.50421411 319.32910484 C-86.83750463 329.04673424 -92.18605656 337.00057179 -101.23828125 342.16015625 C-106.64175376 344.73609104 -112.14482281 344.74170332 -118 344 C-125.6138418 341.02667266 -131.45478038 335.72683643 -135.3125 328.5625 C-138.46599165 316.80857657 -134.83830147 306.91718815 -131.07267761 295.68991089 C-130.67430846 294.48644677 -130.27593931 293.28298266 -129.86549836 292.04304993 C-128.76768306 288.72722433 -127.66247977 285.41390347 -126.555951 282.10097718 C-125.36073065 278.51820323 -124.17240832 274.93314141 -122.98313904 271.34838867 C-120.6554956 264.33617071 -118.32127937 257.32615809 -115.98447987 250.31698667 C-114.08487383 244.61900225 -112.18728216 238.92035093 -110.29110146 233.22122574 C-104.32488474 215.28992449 -98.35158255 197.36099905 -92.37294183 179.43383659 C-87.65985347 165.30055643 -82.9576976 151.16366676 -78.26056298 137.02507733 C-73.43311692 122.49462502 -68.59785971 107.96679312 -63.75433141 93.44169343 C-61.03691081 85.29200646 -58.3226596 77.14129625 -55.6167202 68.98778915 C-53.31377702 62.04882477 -51.00352864 55.11234599 -48.68384095 48.17896043 C-47.5012233 44.64351826 -46.32198292 41.10704532 -45.15190125 37.5674324 C-43.88208422 33.72645826 -42.59598575 29.89113343 -41.30827332 26.05612183 C-40.76019659 24.38539952 -40.76019659 24.38539952 -40.2010476 22.68092525 C-36.83581411 12.74290715 -32.55505485 3.57300476 -22.75 -1.3125 C-14.81826323 -4.54297557 -7.69839715 -3.37623467 0 0 Z " fill="#FF7000" transform="translate(313,81)"/>
<path d="M0 0 C0.86882812 -0.04898438 1.73765625 -0.09796875 2.6328125 -0.1484375 C12.72744234 1.48129792 19.56731801 8.33713988 26.49365234 15.33081055 C27.51223867 16.34096603 28.5318721 17.35006659 29.55245972 18.35820007 C32.2993771 21.07824326 35.03038755 23.81373376 37.75783873 26.55327964 C40.04421549 28.8468257 42.33841679 31.13246427 44.63263094 33.41816646 C50.04744106 38.8130798 55.4494659 44.22055696 60.84326172 49.63647461 C66.39243086 55.20801645 71.96131199 60.75926604 77.54053533 66.30069894 C82.34666439 71.07552366 87.14096417 75.86199872 91.92592204 80.65803939 C94.7766771 83.51525723 97.63142726 86.36814525 100.49735641 89.21014977 C103.19182673 91.88326347 105.8711022 94.57075722 108.53975296 97.26963997 C109.51652455 98.25270215 110.49834059 99.23078413 111.48571777 100.20319366 C118.56232845 107.18123155 123.63990728 113.76049513 124.375 123.9375 C123.64419075 137.32781147 112.01797801 146.38219516 103.22705078 155.21582031 C102.27494642 156.1758471 101.32301664 157.13604706 100.37124634 158.09640503 C97.27461517 161.21897782 94.172782 164.33635447 91.0703125 167.453125 C89.99602695 168.53277904 88.92174592 169.61243757 87.84746933 170.69210052 C83.37834955 175.18279529 78.90781157 179.67207022 74.43354988 184.15764236 C68.04895837 190.5584901 61.67303039 196.96769857 55.30879986 203.38879323 C50.81543879 207.92091611 46.31247554 212.44335595 41.80233371 216.9587791 C39.11589441 219.64885908 36.43374113 222.34290002 33.76181412 225.04740143 C31.24954892 227.58986277 28.72552334 230.12004363 26.19225693 232.64157486 C24.83183176 234.00167625 23.48377363 235.3741132 22.13623047 236.74697876 C15.75356778 243.06542846 9.27109122 247.95059059 -0.0625 247.9375 C-7.13236866 247.65830773 -12.8994701 245.57325269 -17.97265625 240.54296875 C-22.62158588 234.75179597 -25.87633779 228.07332632 -25.44921875 220.48828125 C-24.29026634 212.93414564 -20.97762957 207.84423792 -15.76025391 202.3605957 C-15.23164576 201.7969975 -14.70303761 201.2333993 -14.15841103 200.65272236 C-8.28639593 194.42421197 -2.2614214 188.34738321 3.7890625 182.29296875 C4.97788264 181.10092424 6.16663242 179.90880956 7.35531616 178.71662903 C9.81569671 176.25033353 12.27805996 173.78603812 14.74169922 171.32299805 C17.90310423 168.16169606 21.05748961 164.99348326 24.21030617 161.82361889 C26.64833439 159.37452029 29.09084501 156.92993125 31.53467941 154.48662758 C32.70133427 153.31879186 33.86636606 152.14933239 35.02974319 150.97823143 C36.6422695 149.35597492 38.2609251 147.74009615 39.88134766 146.12573242 C40.80001617 145.20563889 41.71868469 144.28554535 42.66519165 143.33757019 C44.875 141.375 44.875 141.375 46.875 141.375 C47.535 140.055 48.195 138.735 48.875 137.375 C49.535 137.375 50.195 137.375 50.875 137.375 C51.535 136.055 52.195 134.735 52.875 133.375 C53.535 133.375 54.195 133.375 54.875 133.375 C55.101875 132.83875 55.32875 132.3025 55.5625 131.75 C57.30882056 128.58999137 59.5152849 126.1073017 61.875 123.375 C61.3696875 122.89289063 60.864375 122.41078125 60.34375 121.9140625 C59.36921875 120.96660156 59.36921875 120.96660156 58.375 120 C57.7253125 119.37351562 57.075625 118.74703125 56.40625 118.1015625 C54.875 116.375 54.875 116.375 54.875 114.375 C52.895 113.385 52.895 113.385 50.875 112.375 C50.875 111.715 50.875 111.055 50.875 110.375 C48.895 109.385 48.895 109.385 46.875 108.375 C46.875 107.715 46.875 107.055 46.875 106.375 C46.33600067 106.16033585 45.79700134 105.94567169 45.2416687 105.72450256 C42.02253368 103.8889136 39.6020162 101.38863508 37.00830078 98.78295898 C36.4321402 98.21190933 35.85597961 97.64085968 35.26235962 97.05250549 C33.35980982 95.16384915 31.46477529 93.26785954 29.5703125 91.37109375 C28.24540774 90.05007803 26.92028026 88.72928565 25.59494019 87.40870667 C22.81589163 84.63712127 20.0407522 81.86169033 17.26806641 79.08374023 C13.73047906 75.54037947 10.18170767 72.00846612 6.62962532 68.47964382 C3.88756433 65.75238929 1.15254128 63.01815907 -1.58057022 60.28193855 C-2.88504447 58.97797475 -4.19185797 57.67634647 -5.50112534 56.37719536 C-24.46650353 37.54035629 -24.46650353 37.54035629 -25.4375 25.5 C-25.18291754 17.62291925 -21.49818524 11.01059662 -16.125 5.375 C-11.13114388 1.6242033 -6.15420092 0.2332496 0 0 Z " fill="#FF7000" transform="translate(373.125,128.625)"/>
<path d="M0 0 C1.0725 0.598125 2.145 1.19625 3.25 1.8125 C4.14332031 2.30556641 4.14332031 2.30556641 5.0546875 2.80859375 C10.69713928 6.30788251 13.9705284 11.53401216 15.86328125 17.86328125 C17.33444827 25.27855746 15.98356798 31.33715839 12.25 37.8125 C10.50280621 39.89135659 8.75267025 41.86418515 6.88525391 43.8269043 C6.09234168 44.6723016 6.09234168 44.6723016 5.28341103 45.53477764 C-0.58860407 51.76328803 -6.6135786 57.84011679 -12.6640625 63.89453125 C-13.85288264 65.08657576 -15.04163242 66.27869044 -16.23031616 67.47087097 C-18.69069671 69.93716647 -21.15305996 72.40146188 -23.61669922 74.86450195 C-26.77810423 78.02580394 -29.93248961 81.19401674 -33.08530617 84.36388111 C-35.52333439 86.81297971 -37.96584501 89.25756875 -40.40967941 91.70087242 C-41.57633427 92.86870814 -42.74136606 94.03816761 -43.90474319 95.20926857 C-45.5172695 96.83152508 -47.1359251 98.44740385 -48.75634766 100.06176758 C-49.67501617 100.98186111 -50.59368469 101.90195465 -51.54019165 102.84992981 C-53.75 104.8125 -53.75 104.8125 -55.75 104.8125 C-56.74 106.7925 -56.74 106.7925 -57.75 108.8125 C-58.41 108.8125 -59.07 108.8125 -59.75 108.8125 C-60.74 110.7925 -60.74 110.7925 -61.75 112.8125 C-62.41 112.8125 -63.07 112.8125 -63.75 112.8125 C-63.976875 113.34875 -64.20375 113.885 -64.4375 114.4375 C-66.18382056 117.59750863 -68.3902849 120.0801983 -70.75 122.8125 C-70.2446875 123.29460937 -69.739375 123.77671875 -69.21875 124.2734375 C-68.24421875 125.22089844 -68.24421875 125.22089844 -67.25 126.1875 C-66.6003125 126.81398438 -65.950625 127.44046875 -65.28125 128.0859375 C-63.75 129.8125 -63.75 129.8125 -63.75 131.8125 C-61.77 132.8025 -61.77 132.8025 -59.75 133.8125 C-59.75 134.4725 -59.75 135.1325 -59.75 135.8125 C-57.77 136.8025 -57.77 136.8025 -55.75 137.8125 C-55.75 138.4725 -55.75 139.1325 -55.75 139.8125 C-54.94150101 140.13449623 -54.94150101 140.13449623 -54.1166687 140.46299744 C-50.89753368 142.2985864 -48.4770162 144.79886492 -45.88330078 147.40454102 C-45.3071402 147.97559067 -44.73097961 148.54664032 -44.13735962 149.13499451 C-42.23480982 151.02365085 -40.33977529 152.91964046 -38.4453125 154.81640625 C-37.12040774 156.13742197 -35.79528026 157.45821435 -34.46994019 158.77879333 C-31.69089163 161.55037873 -28.9157522 164.32580967 -26.14306641 167.10375977 C-22.60547906 170.64712053 -19.05670767 174.17903388 -15.50462532 177.70785618 C-12.76256433 180.43511071 -10.02754128 183.16934093 -7.29442978 185.90556145 C-5.98995553 187.20952525 -4.68314203 188.51115353 -3.37387466 189.81030464 C15.4160366 208.47286603 15.4160366 208.47286603 16.625 220.5625 C16.43751476 227.08698621 13.58952101 232.72442313 10.125 238.125 C3.65756325 244.17064739 -2.71541981 246.35178153 -11.5 246.4765625 C-21.58983452 244.41493766 -28.33685965 237.95684373 -35.36865234 230.85668945 C-36.38723867 229.84653397 -37.4068721 228.83743341 -38.42745972 227.82929993 C-41.1743771 225.10925674 -43.90538755 222.37376624 -46.63283873 219.63422036 C-48.91921549 217.3406743 -51.21341679 215.05503573 -53.50763094 212.76933354 C-58.92244106 207.3744202 -64.3244659 201.96694304 -69.71826172 196.55102539 C-75.26743086 190.97948355 -80.83631199 185.42823396 -86.41553533 179.88680106 C-91.22166439 175.11197634 -96.01596417 170.32550128 -100.80092204 165.52946061 C-103.6516771 162.67224277 -106.50642726 159.81935475 -109.37235641 156.97735023 C-112.06682673 154.30423653 -114.7461022 151.61674278 -117.41475296 148.91786003 C-118.39152455 147.93479785 -119.37334059 146.95671587 -120.36071777 145.98430634 C-127.33119573 139.11092281 -132.66364255 132.408672 -133.25 122.3125 C-132.61701351 111.41344779 -126.3562751 104.54536437 -118.90771484 97.2097168 C-117.89748198 96.19297785 -116.8885346 95.1749603 -115.88076782 94.15577698 C-113.15864237 91.41071392 -110.41815462 88.6847177 -107.6731143 85.96259284 C-104.79102125 83.09952555 -101.9241058 80.22132465 -99.05484009 77.34541321 C-94.2350937 72.51934067 -89.40323417 67.70566082 -84.56396484 62.89916992 C-78.98519688 57.35788012 -73.42631402 51.79723492 -67.87764966 46.22581357 C-62.51994432 40.84709075 -57.1481362 35.48266475 -51.76994705 30.1244297 C-49.4904314 27.85285907 -47.2159218 25.57644836 -44.9454155 23.29587364 C-42.26614613 20.60598042 -39.57466665 17.92890775 -36.87365341 15.26085472 C-35.88988119 14.28522518 -34.91022329 13.30542475 -33.93526459 12.3209877 C-24.06620272 2.36663269 -14.29368517 -4.52633364 0 0 Z " fill="#FF7000" transform="translate(135.75,130.1875)"/>
</svg>
